<mxfile host="Electron" modified="2025-01-01T16:27:11.607Z" agent="Mozilla/5.0 (Windows NT 10.0; Win64; x64) AppleWebKit/537.36 (KHTML, like Gecko) draw.io/24.6.4 Chrome/124.0.6367.207 Electron/30.0.6 Safari/537.36" etag="Pifv_FBf5-OBS0ZgM3BX" version="24.6.4" type="device">
  <diagram name="Strona-1" id="cgcSOmLP8pdpwUdQKmBF">
    <mxGraphModel dx="3754" dy="1596" grid="1" gridSize="10" guides="1" tooltips="1" connect="1" arrows="1" fold="1" page="0" pageScale="1" pageWidth="827" pageHeight="1169" math="0" shadow="0">
      <root>
        <mxCell id="0" />
        <mxCell id="1" parent="0" />
        <mxCell id="1-zMfy_QAucfREcjeihT-1" value="Support" style="shape=umlActor;verticalLabelPosition=bottom;verticalAlign=top;html=1;outlineConnect=0;" parent="1" vertex="1">
          <mxGeometry x="-330" y="460" width="30" height="60" as="geometry" />
        </mxCell>
        <mxCell id="1-zMfy_QAucfREcjeihT-7" value="Customer" style="shape=umlActor;verticalLabelPosition=bottom;verticalAlign=top;html=1;outlineConnect=0;" parent="1" vertex="1">
          <mxGeometry x="-240" y="170" width="30" height="60" as="geometry" />
        </mxCell>
        <mxCell id="1-zMfy_QAucfREcjeihT-8" value="Developer" style="shape=umlActor;verticalLabelPosition=bottom;verticalAlign=top;html=1;outlineConnect=0;" parent="1" vertex="1">
          <mxGeometry x="-330" y="320" width="30" height="60" as="geometry" />
        </mxCell>
        <mxCell id="1-zMfy_QAucfREcjeihT-9" value="Manager" style="shape=umlActor;verticalLabelPosition=bottom;verticalAlign=top;html=1;outlineConnect=0;" parent="1" vertex="1">
          <mxGeometry x="-260" y="750" width="30" height="60" as="geometry" />
        </mxCell>
        <mxCell id="1-zMfy_QAucfREcjeihT-10" value="QA" style="shape=umlActor;verticalLabelPosition=bottom;verticalAlign=top;html=1;outlineConnect=0;" parent="1" vertex="1">
          <mxGeometry x="-330" y="600" width="30" height="60" as="geometry" />
        </mxCell>
        <mxCell id="1-zMfy_QAucfREcjeihT-11" value="Admin" style="shape=umlActor;verticalLabelPosition=bottom;verticalAlign=top;html=1;outlineConnect=0;" parent="1" vertex="1">
          <mxGeometry x="-210" y="900" width="30" height="60" as="geometry" />
        </mxCell>
        <mxCell id="1-zMfy_QAucfREcjeihT-17" value="Login" style="ellipse;whiteSpace=wrap;html=1;" parent="1" vertex="1">
          <mxGeometry x="230" y="100" width="140" height="70" as="geometry" />
        </mxCell>
        <mxCell id="1-zMfy_QAucfREcjeihT-26" value="Verify password" style="ellipse;whiteSpace=wrap;html=1;" parent="1" vertex="1">
          <mxGeometry x="460" width="140" height="70" as="geometry" />
        </mxCell>
        <mxCell id="1-zMfy_QAucfREcjeihT-28" value="&amp;lt;&amp;lt;include&amp;gt;&amp;gt;" style="endArrow=open;startArrow=none;endFill=0;startFill=0;endSize=8;html=1;verticalAlign=bottom;dashed=1;labelBackgroundColor=none;rounded=0;exitX=0.986;exitY=0.243;exitDx=0;exitDy=0;entryX=0;entryY=0.5;entryDx=0;entryDy=0;exitPerimeter=0;" parent="1" source="1-zMfy_QAucfREcjeihT-17" target="1-zMfy_QAucfREcjeihT-26" edge="1">
          <mxGeometry width="160" relative="1" as="geometry">
            <mxPoint x="540" y="290" as="sourcePoint" />
            <mxPoint x="700" y="290" as="targetPoint" />
            <Array as="points">
              <mxPoint x="400" y="80" />
            </Array>
          </mxGeometry>
        </mxCell>
        <mxCell id="1-zMfy_QAucfREcjeihT-29" value="&amp;lt;&amp;lt;include&amp;gt;&amp;gt;" style="endArrow=open;startArrow=none;endFill=0;startFill=0;endSize=8;html=1;verticalAlign=bottom;dashed=1;labelBackgroundColor=none;rounded=0;exitX=1;exitY=1;exitDx=0;exitDy=0;" parent="1" source="1-zMfy_QAucfREcjeihT-17" target="1-zMfy_QAucfREcjeihT-30" edge="1">
          <mxGeometry width="160" relative="1" as="geometry">
            <mxPoint x="280" y="230" as="sourcePoint" />
            <mxPoint x="370" y="230" as="targetPoint" />
          </mxGeometry>
        </mxCell>
        <mxCell id="1-zMfy_QAucfREcjeihT-30" value="Check user role" style="ellipse;whiteSpace=wrap;html=1;" parent="1" vertex="1">
          <mxGeometry x="460" y="220" width="140" height="70" as="geometry" />
        </mxCell>
        <mxCell id="1-zMfy_QAucfREcjeihT-31" value="Display login exception" style="ellipse;whiteSpace=wrap;html=1;" parent="1" vertex="1">
          <mxGeometry x="460" y="340" width="140" height="70" as="geometry" />
        </mxCell>
        <mxCell id="1-zMfy_QAucfREcjeihT-32" value="&amp;lt;&amp;lt;extends&amp;gt;&amp;gt;" style="endArrow=open;startArrow=none;endFill=0;startFill=0;endSize=8;html=1;verticalAlign=bottom;dashed=1;labelBackgroundColor=none;rounded=0;exitX=0;exitY=0;exitDx=0;exitDy=0;entryX=0.686;entryY=0.986;entryDx=0;entryDy=0;entryPerimeter=0;" parent="1" source="1-zMfy_QAucfREcjeihT-31" target="1-zMfy_QAucfREcjeihT-17" edge="1">
          <mxGeometry width="160" relative="1" as="geometry">
            <mxPoint x="359" y="170" as="sourcePoint" />
            <mxPoint x="492" y="240" as="targetPoint" />
          </mxGeometry>
        </mxCell>
        <mxCell id="1-zMfy_QAucfREcjeihT-40" value="User" style="shape=umlActor;verticalLabelPosition=bottom;verticalAlign=top;html=1;outlineConnect=0;" parent="1" vertex="1">
          <mxGeometry x="70" y="490" width="30" height="60" as="geometry" />
        </mxCell>
        <mxCell id="1-zMfy_QAucfREcjeihT-43" value="" style="endArrow=none;html=1;rounded=0;exitX=0.5;exitY=0.5;exitDx=0;exitDy=0;exitPerimeter=0;entryX=0;entryY=0.5;entryDx=0;entryDy=0;" parent="1" source="1-zMfy_QAucfREcjeihT-40" target="1-zMfy_QAucfREcjeihT-17" edge="1">
          <mxGeometry width="50" height="50" relative="1" as="geometry">
            <mxPoint x="600" y="510" as="sourcePoint" />
            <mxPoint x="650" y="460" as="targetPoint" />
          </mxGeometry>
        </mxCell>
        <mxCell id="1-zMfy_QAucfREcjeihT-56" value="Extends" style="endArrow=block;endSize=16;endFill=0;html=1;rounded=0;exitX=0.5;exitY=0.5;exitDx=0;exitDy=0;exitPerimeter=0;" parent="1" source="1-zMfy_QAucfREcjeihT-7" edge="1">
          <mxGeometry width="160" relative="1" as="geometry">
            <mxPoint x="220" y="800" as="sourcePoint" />
            <mxPoint x="85" y="470" as="targetPoint" />
          </mxGeometry>
        </mxCell>
        <mxCell id="1-zMfy_QAucfREcjeihT-57" value="Extends" style="endArrow=block;endSize=16;endFill=0;html=1;rounded=0;" parent="1" source="1-zMfy_QAucfREcjeihT-11" edge="1">
          <mxGeometry width="160" relative="1" as="geometry">
            <mxPoint x="15" y="760" as="sourcePoint" />
            <mxPoint x="80" y="580" as="targetPoint" />
          </mxGeometry>
        </mxCell>
        <mxCell id="1-zMfy_QAucfREcjeihT-58" value="Extends" style="endArrow=block;endSize=16;endFill=0;html=1;rounded=0;" parent="1" source="1-zMfy_QAucfREcjeihT-8" edge="1">
          <mxGeometry width="160" relative="1" as="geometry">
            <mxPoint x="-10" y="334" as="sourcePoint" />
            <mxPoint x="60" y="490" as="targetPoint" />
          </mxGeometry>
        </mxCell>
        <mxCell id="1-zMfy_QAucfREcjeihT-59" value="Extends" style="endArrow=block;endSize=16;endFill=0;html=1;rounded=0;" parent="1" source="1-zMfy_QAucfREcjeihT-1" edge="1">
          <mxGeometry width="160" relative="1" as="geometry">
            <mxPoint x="-10" y="457" as="sourcePoint" />
            <mxPoint x="60" y="520" as="targetPoint" />
          </mxGeometry>
        </mxCell>
        <mxCell id="1-zMfy_QAucfREcjeihT-60" value="Extends" style="endArrow=block;endSize=16;endFill=0;html=1;rounded=0;" parent="1" source="1-zMfy_QAucfREcjeihT-10" edge="1">
          <mxGeometry width="160" relative="1" as="geometry">
            <mxPoint x="-10" y="581" as="sourcePoint" />
            <mxPoint x="60" y="550" as="targetPoint" />
          </mxGeometry>
        </mxCell>
        <mxCell id="1-zMfy_QAucfREcjeihT-62" value="Extends" style="endArrow=block;endSize=16;endFill=0;html=1;rounded=0;exitX=1;exitY=0.3333333333333333;exitDx=0;exitDy=0;exitPerimeter=0;" parent="1" source="1-zMfy_QAucfREcjeihT-9" edge="1">
          <mxGeometry width="160" relative="1" as="geometry">
            <mxPoint x="-10" y="850" as="sourcePoint" />
            <mxPoint x="80" y="570" as="targetPoint" />
          </mxGeometry>
        </mxCell>
        <mxCell id="1-zMfy_QAucfREcjeihT-70" value="Create account" style="ellipse;whiteSpace=wrap;html=1;" parent="1" vertex="1">
          <mxGeometry x="200" y="860" width="140" height="70" as="geometry" />
        </mxCell>
        <mxCell id="1-zMfy_QAucfREcjeihT-71" value="Request password reset" style="ellipse;whiteSpace=wrap;html=1;" parent="1" vertex="1">
          <mxGeometry x="210" y="450" width="140" height="70" as="geometry" />
        </mxCell>
        <mxCell id="1-zMfy_QAucfREcjeihT-72" value="" style="endArrow=none;html=1;rounded=0;entryX=0;entryY=0.5;entryDx=0;entryDy=0;" parent="1" edge="1">
          <mxGeometry width="50" height="50" relative="1" as="geometry">
            <mxPoint x="-440" y="-155" as="sourcePoint" />
            <mxPoint x="-275" y="-155" as="targetPoint" />
          </mxGeometry>
        </mxCell>
        <mxCell id="1-zMfy_QAucfREcjeihT-73" value="&amp;lt;&amp;lt;extends&amp;gt;&amp;gt;" style="endArrow=open;startArrow=none;endFill=0;startFill=0;endSize=8;html=1;verticalAlign=bottom;dashed=1;labelBackgroundColor=none;rounded=0;entryX=0.686;entryY=0.986;entryDx=0;entryDy=0;entryPerimeter=0;" parent="1" edge="1">
          <mxGeometry width="160" relative="1" as="geometry">
            <mxPoint x="-280" y="-130" as="sourcePoint" />
            <mxPoint x="-440" y="-130" as="targetPoint" />
          </mxGeometry>
        </mxCell>
        <mxCell id="1-zMfy_QAucfREcjeihT-74" value="&amp;lt;&amp;lt;include&amp;gt;&amp;gt;" style="endArrow=open;startArrow=none;endFill=0;startFill=0;endSize=8;html=1;verticalAlign=bottom;dashed=1;labelBackgroundColor=none;rounded=0;exitX=1;exitY=1;exitDx=0;exitDy=0;" parent="1" edge="1">
          <mxGeometry width="160" relative="1" as="geometry">
            <mxPoint x="-440" y="-110" as="sourcePoint" />
            <mxPoint x="-280" y="-110" as="targetPoint" />
          </mxGeometry>
        </mxCell>
        <mxCell id="1-zMfy_QAucfREcjeihT-75" value="Extends" style="endArrow=block;endSize=16;endFill=0;html=1;rounded=0;exitX=0.5;exitY=0.5;exitDx=0;exitDy=0;exitPerimeter=0;" parent="1" edge="1">
          <mxGeometry width="160" relative="1" as="geometry">
            <mxPoint x="-440" y="-90" as="sourcePoint" />
            <mxPoint x="-280" y="-90" as="targetPoint" />
          </mxGeometry>
        </mxCell>
        <mxCell id="1-zMfy_QAucfREcjeihT-76" value="Check account existance" style="ellipse;whiteSpace=wrap;html=1;" parent="1" vertex="1">
          <mxGeometry x="450" y="860" width="140" height="70" as="geometry" />
        </mxCell>
        <mxCell id="1-zMfy_QAucfREcjeihT-77" value="" style="endArrow=none;html=1;rounded=0;entryX=0;entryY=0.5;entryDx=0;entryDy=0;" parent="1" source="1-zMfy_QAucfREcjeihT-9" target="1-zMfy_QAucfREcjeihT-70" edge="1">
          <mxGeometry width="50" height="50" relative="1" as="geometry">
            <mxPoint x="-95" y="880" as="sourcePoint" />
            <mxPoint x="70" y="880" as="targetPoint" />
          </mxGeometry>
        </mxCell>
        <mxCell id="1-zMfy_QAucfREcjeihT-79" value="" style="endArrow=none;html=1;rounded=0;entryX=0.029;entryY=0.657;entryDx=0;entryDy=0;entryPerimeter=0;" parent="1" source="1-zMfy_QAucfREcjeihT-11" target="1-zMfy_QAucfREcjeihT-70" edge="1">
          <mxGeometry width="50" height="50" relative="1" as="geometry">
            <mxPoint x="-220" y="787" as="sourcePoint" />
            <mxPoint x="240" y="710" as="targetPoint" />
          </mxGeometry>
        </mxCell>
        <mxCell id="1-zMfy_QAucfREcjeihT-80" value="Display account creation exception" style="ellipse;whiteSpace=wrap;html=1;" parent="1" vertex="1">
          <mxGeometry x="450" y="970" width="140" height="70" as="geometry" />
        </mxCell>
        <mxCell id="1-zMfy_QAucfREcjeihT-81" value="&amp;lt;&amp;lt;extends&amp;gt;&amp;gt;" style="endArrow=open;startArrow=none;endFill=0;startFill=0;endSize=8;html=1;verticalAlign=bottom;dashed=1;labelBackgroundColor=none;rounded=0;exitX=-0.029;exitY=0.371;exitDx=0;exitDy=0;entryX=1;entryY=1;entryDx=0;entryDy=0;exitPerimeter=0;" parent="1" source="1-zMfy_QAucfREcjeihT-80" target="1-zMfy_QAucfREcjeihT-70" edge="1">
          <mxGeometry width="160" relative="1" as="geometry">
            <mxPoint x="481" y="470" as="sourcePoint" />
            <mxPoint x="326" y="289" as="targetPoint" />
          </mxGeometry>
        </mxCell>
        <mxCell id="1-zMfy_QAucfREcjeihT-82" value="&amp;lt;&amp;lt;include&amp;gt;&amp;gt;" style="endArrow=open;startArrow=none;endFill=0;startFill=0;endSize=8;html=1;verticalAlign=bottom;dashed=1;labelBackgroundColor=none;rounded=0;exitX=0.993;exitY=0.3;exitDx=0;exitDy=0;exitPerimeter=0;entryX=0;entryY=0.343;entryDx=0;entryDy=0;entryPerimeter=0;" parent="1" source="1-zMfy_QAucfREcjeihT-70" target="1-zMfy_QAucfREcjeihT-76" edge="1">
          <mxGeometry width="160" relative="1" as="geometry">
            <mxPoint x="349" y="280" as="sourcePoint" />
            <mxPoint x="482" y="350" as="targetPoint" />
          </mxGeometry>
        </mxCell>
        <mxCell id="1-zMfy_QAucfREcjeihT-83" value="" style="endArrow=none;html=1;rounded=0;exitX=0.5;exitY=0.5;exitDx=0;exitDy=0;exitPerimeter=0;entryX=0;entryY=0.5;entryDx=0;entryDy=0;" parent="1" source="1-zMfy_QAucfREcjeihT-40" target="1-zMfy_QAucfREcjeihT-71" edge="1">
          <mxGeometry width="50" height="50" relative="1" as="geometry">
            <mxPoint x="95" y="530" as="sourcePoint" />
            <mxPoint x="240" y="145" as="targetPoint" />
          </mxGeometry>
        </mxCell>
        <mxCell id="1-zMfy_QAucfREcjeihT-84" value="Send user verification email" style="ellipse;whiteSpace=wrap;html=1;" parent="1" vertex="1">
          <mxGeometry x="450" y="480" width="140" height="70" as="geometry" />
        </mxCell>
        <mxCell id="1-zMfy_QAucfREcjeihT-85" value="&amp;lt;&amp;lt;include&amp;gt;&amp;gt;" style="endArrow=open;startArrow=none;endFill=0;startFill=0;endSize=8;html=1;verticalAlign=bottom;dashed=1;labelBackgroundColor=none;rounded=0;exitX=1;exitY=0.5;exitDx=0;exitDy=0;entryX=0;entryY=0.414;entryDx=0;entryDy=0;entryPerimeter=0;" parent="1" source="1-zMfy_QAucfREcjeihT-71" target="1-zMfy_QAucfREcjeihT-84" edge="1">
          <mxGeometry width="160" relative="1" as="geometry">
            <mxPoint x="349" y="180" as="sourcePoint" />
            <mxPoint x="482" y="250" as="targetPoint" />
          </mxGeometry>
        </mxCell>
        <mxCell id="1-zMfy_QAucfREcjeihT-86" value="Send new temporary password" style="ellipse;whiteSpace=wrap;html=1;" parent="1" vertex="1">
          <mxGeometry x="450" y="590" width="140" height="70" as="geometry" />
        </mxCell>
        <mxCell id="1-zMfy_QAucfREcjeihT-87" value="Display reset exception" style="ellipse;whiteSpace=wrap;html=1;" parent="1" vertex="1">
          <mxGeometry x="450" y="680" width="140" height="70" as="geometry" />
        </mxCell>
        <mxCell id="1-zMfy_QAucfREcjeihT-88" value="&amp;lt;&amp;lt;extends&amp;gt;&amp;gt;" style="endArrow=open;startArrow=none;endFill=0;startFill=0;endSize=8;html=1;verticalAlign=bottom;dashed=1;labelBackgroundColor=none;rounded=0;exitX=0.036;exitY=0.357;exitDx=0;exitDy=0;exitPerimeter=0;" parent="1" source="1-zMfy_QAucfREcjeihT-86" target="1-zMfy_QAucfREcjeihT-71" edge="1">
          <mxGeometry x="-0.0056" width="160" relative="1" as="geometry">
            <mxPoint x="440" y="610" as="sourcePoint" />
            <mxPoint x="326" y="189" as="targetPoint" />
            <mxPoint as="offset" />
          </mxGeometry>
        </mxCell>
        <mxCell id="1-zMfy_QAucfREcjeihT-89" value="&amp;lt;&amp;lt;extends&amp;gt;&amp;gt;" style="endArrow=open;startArrow=none;endFill=0;startFill=0;endSize=8;html=1;verticalAlign=bottom;dashed=1;labelBackgroundColor=none;rounded=0;exitX=0.029;exitY=0.414;exitDx=0;exitDy=0;exitPerimeter=0;entryX=0.5;entryY=1;entryDx=0;entryDy=0;" parent="1" source="1-zMfy_QAucfREcjeihT-87" target="1-zMfy_QAucfREcjeihT-71" edge="1">
          <mxGeometry x="-0.0056" width="160" relative="1" as="geometry">
            <mxPoint x="406" y="621" as="sourcePoint" />
            <mxPoint x="270" y="520" as="targetPoint" />
            <mxPoint as="offset" />
          </mxGeometry>
        </mxCell>
        <mxCell id="1-zMfy_QAucfREcjeihT-90" value="Verify token" style="ellipse;whiteSpace=wrap;html=1;" parent="1" vertex="1">
          <mxGeometry x="460" y="100" width="140" height="70" as="geometry" />
        </mxCell>
        <mxCell id="1-zMfy_QAucfREcjeihT-91" value="&amp;lt;&amp;lt;include&amp;gt;&amp;gt;" style="endArrow=open;startArrow=none;endFill=0;startFill=0;endSize=8;html=1;verticalAlign=bottom;dashed=1;labelBackgroundColor=none;rounded=0;exitX=1;exitY=0.614;exitDx=0;exitDy=0;exitPerimeter=0;" parent="1" source="1-zMfy_QAucfREcjeihT-17" target="1-zMfy_QAucfREcjeihT-90" edge="1">
          <mxGeometry width="160" relative="1" as="geometry">
            <mxPoint x="380" y="145" as="sourcePoint" />
            <mxPoint x="470" y="45" as="targetPoint" />
            <Array as="points" />
          </mxGeometry>
        </mxCell>
        <mxCell id="Jm9Wt1YxQhbESNrLQVrd-1" value="Sloth" style="shape=umlFrame;whiteSpace=wrap;html=1;pointerEvents=0;recursiveResize=0;container=1;collapsible=0;width=160;" vertex="1" parent="1">
          <mxGeometry x="170" y="-20" width="520" height="1160" as="geometry" />
        </mxCell>
      </root>
    </mxGraphModel>
  </diagram>
</mxfile>
